<?xml version="1.0" standalone="no"?>
<!DOCTYPE svg PUBLIC "-//W3C//DTD SVG 20010904//EN"
 "http://www.w3.org/TR/2001/REC-SVG-20010904/DTD/svg10.dtd">
<svg version="1.0" xmlns="http://www.w3.org/2000/svg"
 width="2400.000000pt" height="1127.000000pt" viewBox="0 0 2400.000000 1127.000000"
 preserveAspectRatio="xMidYMid meet">
<metadata>
Created by potrace 1.15, written by Peter Selinger 2001-2017
</metadata>
<g transform="translate(0.000000,1127.000000) scale(0.100000,-0.100000)"
fill="#000000" stroke="none">
<path d="M4385 10253 c-9 -25 -300 -860 -316 -910 l-14 -42 -255 172 c-140 95
-364 246 -497 336 -134 91 -245 163 -247 160 -4 -4 73 -504 119 -764 13 -77
22 -141 21 -143 -2 -1 -48 31 -103 72 -55 42 -153 109 -218 151 -120 77 -393
220 -402 212 -2 -3 22 -41 55 -84 147 -195 284 -460 407 -793 26 -69 48 -126
49 -128 2 -1 59 27 127 62 368 191 809 337 1244 410 406 69 894 73 1320 11
137 -20 456 -85 499 -101 11 -4 16 11 21 63 11 112 62 403 90 519 36 145 88
300 135 402 23 47 34 82 27 82 -38 -1 -391 -336 -525 -497 -42 -51 -77 -91
-79 -90 -2 3 -63 860 -63 896 0 11 -4 21 -8 21 -7 0 -671 -707 -773 -822 -20
-23 -40 -39 -45 -35 -5 3 -130 197 -279 431 -148 234 -273 426 -276 426 -4 0
-10 -8 -14 -17z"/>
<path d="M4815 8783 c-532 -33 -1071 -167 -1505 -375 l-125 -60 72 -13 c183
-32 352 -164 449 -349 l38 -71 -29 19 c-150 98 -336 147 -481 127 -126 -18
-200 -56 -281 -144 -168 -182 -182 -555 -34 -873 22 -46 36 -84 31 -84 -17 0
-127 89 -175 142 -136 150 -204 359 -192 588 6 118 24 196 67 288 16 34 27 62
24 62 -3 0 -49 -33 -102 -72 -462 -347 -854 -801 -1121 -1297 -33 -63 -60
-115 -58 -116 3 -3 403 -65 417 -65 6 0 -15 -33 -48 -72 -340 -418 -656 -1132
-747 -1688 -16 -100 -20 -230 -7 -230 4 0 155 45 336 100 181 55 331 98 334
95 3 -2 0 -24 -6 -48 -46 -181 -65 -465 -59 -854 8 -521 66 -902 189 -1238 43
-118 134 -305 149 -305 19 0 222 173 358 305 238 232 504 550 707 845 49 71
91 130 94 130 8 0 66 -217 89 -335 38 -187 52 -330 58 -563 9 -351 -22 -661
-112 -1121 -19 -101 -34 -185 -33 -186 20 -15 113 -62 188 -95 217 -96 466
-169 700 -206 143 -22 543 -30 708 -14 528 50 1096 250 1514 532 31 21 59 35
61 30 2 -4 33 -118 68 -254 36 -139 69 -248 75 -248 15 0 205 134 324 229 126
101 352 322 453 444 372 449 613 1004 679 1565 6 56 14 102 17 101 3 0 76 -77
161 -170 85 -93 158 -169 162 -169 11 0 64 174 113 365 47 183 87 410 107 595
15 150 15 534 0 680 -70 649 -295 1234 -719 1873 -58 86 -108 157 -113 157 -4
0 -13 -46 -20 -102 -7 -57 -16 -106 -19 -110 -6 -7 -226 217 -274 279 -19 23
-19 23 33 70 l52 47 -6 50 c-7 65 -64 181 -110 226 -36 34 -36 34 -84 21 -61
-16 -125 -54 -183 -107 l-45 -43 -70 50 c-73 54 -257 149 -286 149 -14 0 -5
-15 33 -62 67 -84 160 -221 192 -283 17 -33 45 -65 84 -95 187 -144 483 -409
483 -432 0 -5 -13 -2 -30 7 -51 26 -190 54 -326 66 -209 17 -459 -11 -601 -67
l-63 -25 -56 63 c-32 35 -159 164 -283 288 l-226 225 0 71 c1 59 6 82 32 135
18 35 48 83 69 107 20 24 34 46 31 49 -4 3 -36 0 -72 -7 -77 -15 -180 -62
-248 -114 l-48 -37 -63 39 c-140 89 -444 224 -534 237 -75 12 -292 -62 -438
-149 -84 -50 -205 -143 -211 -163 -5 -14 176 -117 282 -160 130 -52 217 -65
410 -64 183 0 342 -13 390 -34 48 -20 277 -229 448 -406 86 -89 156 -164 154
-165 -1 -1 -39 8 -84 21 -150 44 -276 56 -553 56 -140 0 -293 -3 -340 -6 -102
-8 -319 9 -410 31 -148 37 -306 130 -417 247 -106 112 -164 227 -179 357 -5
42 -11 61 -23 64 -9 2 -72 12 -141 22 -186 25 -180 16 -74 120 50 49 132 118
183 153 89 61 248 143 304 156 15 4 27 11 27 15 0 5 -41 41 -91 82 l-90 73 33
28 c61 52 202 141 313 199 232 120 513 211 802 258 l71 12 141 -72 c167 -85
342 -189 540 -323 79 -53 148 -97 152 -97 30 0 119 269 119 357 l0 33 58 -25
c254 -112 672 -400 951 -654 58 -53 102 -89 99 -81 -3 8 -35 86 -72 172 -101
240 -133 348 -171 578 -5 28 -21 48 -76 95 -185 159 -451 307 -739 412 -99 36
-401 125 -406 120 -2 -2 12 -46 31 -99 33 -94 65 -234 65 -288 0 -26 -11 -17
-117 92 -137 140 -289 265 -397 327 -72 41 -82 44 -184 52 -101 8 -408 9 -517
2z m1628 -2804 c100 -66 303 -171 367 -190 l40 -12 0 -257 0 -257 -132 -104
c-392 -308 -730 -482 -962 -496 l-91 -6 -219 404 -219 403 37 32 c48 41 246
177 366 249 110 67 314 171 415 211 85 33 251 83 283 83 13 1 65 -26 115 -60z
m1125 -56 c146 -400 155 -824 22 -1121 l-33 -73 -43 80 c-54 102 -127 199
-246 330 l-95 103 -6 172 c-4 94 -7 212 -7 261 l1 90 90 55 c50 30 130 85 177
121 48 37 92 67 97 68 6 1 25 -38 43 -86z m-375 -1262 c96 -129 174 -315 162
-386 -20 -128 -133 -386 -223 -508 -76 -104 -235 -257 -266 -257 -3 0 -6 27
-6 59 0 126 -53 487 -74 508 -3 4 -28 -15 -55 -40 -59 -55 -128 -100 -236
-154 -91 -46 -252 -108 -306 -118 l-36 -7 -129 238 c-71 130 -130 240 -132
244 -1 4 20 10 48 14 155 21 420 159 679 355 l126 96 90 6 c50 3 141 6 203 7
l112 2 43 -59z"/>
<path d="M9660 7180 l0 -1540 305 0 305 0 0 500 0 500 228 0 c249 0 360 10
498 45 392 99 656 370 734 755 26 127 28 345 5 469 -73 384 -346 667 -738 766
-155 39 -268 45 -817 45 l-520 0 0 -1540z m1108 945 c199 -47 325 -178 352
-364 29 -203 -64 -393 -234 -476 -100 -49 -146 -56 -388 -62 l-228 -6 0 462 0
461 218 0 c157 0 234 -4 280 -15z"/>
<path d="M18917 8620 c-101 -26 -197 -105 -240 -198 -18 -38 -22 -66 -22 -142
0 -82 4 -103 26 -150 45 -94 123 -159 224 -185 79 -20 130 -19 206 5 89 27
154 80 198 160 35 62 36 69 36 165 0 84 -4 109 -24 153 -30 67 -122 154 -188
176 -59 21 -165 28 -216 16z"/>
<path d="M14055 7705 c-415 -78 -718 -358 -832 -770 -26 -93 -28 -113 -28
-290 0 -161 4 -203 22 -275 87 -343 327 -608 652 -719 430 -147 916 -46 1228
256 l65 63 -172 180 -172 179 -57 -50 c-239 -215 -590 -249 -814 -81 -68 51
-135 142 -160 216 l-16 46 738 0 739 0 6 31 c12 61 6 296 -10 390 -69 403
-340 703 -733 810 -102 28 -341 35 -456 14z m312 -499 c82 -22 140 -54 202
-112 53 -48 108 -133 126 -191 l6 -23 -461 0 -461 0 7 23 c43 141 171 260 325
301 69 19 190 20 256 2z"/>
<path d="M16383 7706 c-127 -31 -252 -121 -322 -231 -35 -55 -32 -59 -64 85
l-24 105 -251 3 -252 2 0 -1015 0 -1015 285 0 284 0 3 648 3 647 24 59 c31 78
91 137 167 166 77 29 207 25 270 -8 63 -32 121 -104 144 -180 19 -61 20 -93
20 -698 l0 -634 285 0 284 0 3 648 c3 643 3 647 25 702 30 74 70 120 134 155
50 28 61 30 159 30 96 0 109 -2 152 -27 58 -35 112 -97 135 -157 16 -42 18
-99 21 -698 l3 -653 285 0 285 0 -3 728 c-3 718 -4 728 -26 807 -73 261 -230
433 -467 512 -73 25 -93 27 -240 27 -147 0 -166 -2 -240 -27 -107 -36 -188
-91 -283 -193 l-79 -84 -28 40 c-81 117 -246 225 -390 255 -84 18 -231 18
-302 1z"/>
<path d="M20355 7704 c-411 -73 -722 -361 -832 -769 -25 -92 -27 -115 -27
-290 -1 -162 3 -202 21 -275 113 -446 463 -735 947 -780 346 -33 694 85 933
317 l65 63 -172 180 -172 180 -57 -51 c-194 -175 -468 -233 -694 -149 -120 45
-240 167 -280 284 l-16 46 738 0 739 0 6 31 c12 59 6 296 -9 385 -76 443 -395
765 -825 833 -90 15 -269 12 -365 -5z m312 -498 c82 -22 140 -54 202 -112 53
-48 108 -133 126 -191 l6 -23 -461 0 -461 0 7 23 c43 140 172 260 327 302 68
18 188 18 254 1z"/>
<path d="M12846 7674 c-132 -32 -251 -114 -324 -223 l-40 -60 -27 140 -28 139
-248 0 -249 0 0 -1015 0 -1015 284 0 285 0 4 568 c4 611 3 607 58 718 79 158
267 242 484 214 44 -5 87 -13 97 -16 17 -5 18 11 18 269 l0 275 -50 11 c-69
15 -192 12 -264 -5z"/>
<path d="M22672 7670 c-131 -35 -236 -109 -310 -220 l-40 -59 -21 102 c-12 56
-24 119 -28 140 l-6 37 -248 0 -249 0 0 -1015 0 -1015 284 0 285 0 3 573 c3
570 3 572 26 637 62 171 173 263 353 290 72 10 218 1 264 -16 13 -5 15 28 15
269 l0 275 -50 11 c-76 16 -196 12 -278 -9z"/>
<path d="M18710 6655 l0 -1015 285 0 285 0 0 1015 0 1015 -285 0 -285 0 0
-1015z"/>
<path d="M9660 3820 l0 -1500 955 0 955 0 0 285 0 285 -650 0 -650 0 0 1215 0
1215 -305 0 -305 0 0 -1500z"/>
<path d="M12552 4385 c-419 -74 -732 -366 -842 -786 -31 -117 -39 -348 -16
-476 59 -339 264 -610 570 -754 341 -159 786 -137 1116 57 68 40 189 134 239
187 l34 36 -168 175 c-93 97 -174 176 -180 176 -6 0 -24 -14 -41 -31 -43 -46
-165 -124 -231 -149 -181 -68 -382 -63 -530 13 -96 50 -183 150 -223 255 l-20
52 740 0 739 0 7 36 c3 19 4 113 1 207 -5 186 -18 251 -77 405 -60 157 -210
344 -353 441 -75 51 -223 117 -317 141 -111 28 -329 36 -448 15z m303 -500
c157 -41 296 -171 331 -309 l6 -26 -461 0 -461 0 6 28 c13 55 68 143 120 192
116 109 301 156 459 115z"/>
<path d="M21802 4385 c-227 -40 -416 -139 -573 -301 -131 -136 -219 -293 -269
-485 -30 -116 -38 -337 -16 -471 56 -340 262 -614 570 -759 338 -158 783 -137
1108 52 74 44 195 137 247 192 l34 36 -168 175 c-93 97 -173 176 -180 176 -6
0 -24 -14 -41 -31 -43 -46 -165 -124 -231 -149 -148 -55 -324 -63 -452 -19
-132 45 -245 151 -296 275 l-24 59 738 3 739 2 6 23 c12 45 6 315 -9 403 -59
336 -255 597 -556 738 -138 65 -236 87 -404 92 -94 2 -167 -2 -223 -11z m303
-500 c157 -41 296 -171 331 -309 l6 -26 -462 0 -461 0 6 23 c70 235 332 376
580 312z"/>
<path d="M14806 4369 c-38 -5 -110 -23 -160 -40 -456 -152 -758 -624 -706
-1104 70 -653 689 -1104 1265 -921 111 35 201 90 286 175 l77 76 27 -117 27
-118 249 0 249 0 0 1015 0 1015 -248 0 -249 0 -28 -129 -29 -128 -26 36 c-73
101 -206 184 -355 221 -94 24 -278 33 -379 19z m379 -524 c390 -102 517 -616
219 -894 -296 -277 -775 -124 -859 274 -18 88 -18 132 0 219 42 200 182 349
375 400 73 19 192 20 265 1z"/>
<path d="M17233 4370 c-234 -33 -436 -132 -599 -294 -139 -140 -224 -284 -276
-473 -19 -67 -22 -104 -22 -273 -1 -172 2 -205 22 -278 53 -195 143 -353 277
-488 133 -135 285 -222 470 -270 131 -34 327 -39 450 -10 130 30 242 88 337
174 l38 34 0 -104 c0 -316 -166 -489 -493 -517 -250 -21 -458 48 -659 221
l-57 48 -139 -192 c-76 -106 -147 -206 -157 -222 l-19 -29 49 -44 c168 -150
378 -256 603 -303 125 -26 366 -37 484 -21 263 35 487 136 656 296 135 127
217 270 265 463 21 86 21 103 24 1175 l4 1087 -249 0 -249 0 -27 -112 c-14
-62 -26 -118 -26 -124 0 -7 -33 21 -72 60 -129 128 -283 194 -473 201 -55 2
-128 0 -162 -5z m319 -521 c95 -20 177 -66 254 -143 207 -208 207 -535 0 -742
-161 -161 -395 -199 -606 -97 -67 32 -185 148 -222 219 -79 148 -77 353 4 506
39 74 133 167 207 207 105 55 244 75 363 50z"/>
<path d="M18753 3728 c5 -663 7 -692 58 -845 63 -192 180 -349 342 -456 183
-121 461 -184 705 -158 274 29 472 119 632 288 83 88 136 171 179 283 64 166
64 163 68 868 l4 642 -285 0 -286 0 0 -573 c0 -485 -2 -582 -15 -632 -60 -231
-212 -345 -439 -332 -198 11 -313 100 -370 286 -19 62 -20 98 -24 659 l-3 592
-286 0 -285 0 5 -622z"/>
</g>
</svg>
