<?xml version="1.0" encoding="utf-8"?>
<!-- Generator: Adobe Illustrator 16.0.0, SVG Export Plug-In . SVG Version: 6.00 Build 0)  -->
<!DOCTYPE svg PUBLIC "-//W3C//DTD SVG 1.1//EN" "http://www.w3.org/Graphics/SVG/1.1/DTD/svg11.dtd">
<svg version="1.1" id="Layer_1" xmlns="http://www.w3.org/2000/svg" xmlns:xlink="http://www.w3.org/1999/xlink" x="0px" y="0px"
	 width="249.898px" height="383.817px" viewBox="0 0 249.898 383.817" enable-background="new 0 0 249.898 383.817"
	 xml:space="preserve">
<g>
	<g>
		<path fill="#FFFFFF" d="M68.027,242.718L0,383.77h27.838l8.43-18.496H99.6l9.156,18.498h27.65L68.027,242.718z M48.389,341.176
			l19.617-41.125l19.686,41.125H48.389z"/>
		<polygon fill="#FFFFFF" points="146.166,383.817 176.477,383.817 176.477,323.426 231.125,323.426 231.125,297.599 
			176.492,297.599 176.492,268.734 249.898,268.734 249.898,241.785 146.121,241.785 		"/>
	</g>
	<g>
		<g>
			<path fill-rule="evenodd" clip-rule="evenodd" fill="#FFFFFF" stroke="#FFFFFF" stroke-width="6" stroke-miterlimit="10" d="
				M95.804,17.157c9.941-4.149,19.862-8.354,29.833-12.429c7.311-2.986,14.201-2.128,20.475,2.78
				c16.664,13.041,33.335,26.072,49.955,39.169c5.632,4.439,8.062,10.399,7.178,17.492c-2.099,16.86-4.341,33.7-6.528,50.551
				c-0.495,3.816-1.041,7.624-1.498,11.441c-1.035,8.723-5.707,14.561-13.774,17.916c-15.692,6.531-31.337,13.179-47.021,19.729
				c-3.9,1.631-7.855,3.142-11.837,4.57c-6.271,2.246-12.091,0.89-17.289-2.896c-8.241-5.999-16.326-12.212-24.458-18.359
				c-8.028-6.07-16.04-12.171-24.047-18.269c-4.174-3.174-8.243-6.502-9.493-11.926c-0.554-2.401-1.004-4.973-0.747-7.387
				c1.527-14.342,3.271-28.663,4.953-42.988c0.779-6.625,1.646-13.236,2.361-19.867c0.883-8.235,4.865-14.193,12.578-17.449
				c8.922-3.764,17.875-7.459,26.813-11.187c0.827-0.346,1.657-0.691,2.486-1.039C95.762,17.058,95.783,17.108,95.804,17.157z
				 M97.63,20.399c-0.003-0.007-0.003-0.01-0.006-0.013c-9.947,4.152-19.9,8.287-29.841,12.457
				c-5.577,2.34-8.731,6.573-9.452,12.555c-2.561,21.262-5.105,42.532-7.608,63.804c-0.694,5.88,1.313,10.747,6.04,14.352
				c16.732,12.745,33.521,25.422,50.242,38.188c5.248,4.008,10.704,4.659,16.78,2.077c18.96-8.049,37.948-16.026,56.962-23.943
				c6.1-2.54,9.41-6.95,10.25-13.466c2.664-20.675,5.416-41.334,8.131-62.001c0.806-6.175-1.197-11.221-6.119-15.079
				c-16.556-12.979-33.116-25.949-49.651-38.95c-5.137-4.04-10.616-4.681-16.604-2.15C117.063,12.329,107.34,16.344,97.63,20.399z"
				/>
		</g>
		
			<line fill-rule="evenodd" clip-rule="evenodd" fill="#FFFFFF" stroke="#FFFFFF" stroke-width="9" stroke-miterlimit="10" x1="152.902" y1="18.167" x2="140.013" y2="122.695"/>
		
			<line fill-rule="evenodd" clip-rule="evenodd" fill="#FFFFFF" stroke="#FFFFFF" stroke-width="9" stroke-miterlimit="10" x1="53.419" y1="89.346" x2="147.019" y2="51.513"/>
		
			<line fill-rule="evenodd" clip-rule="evenodd" fill="#FFFFFF" stroke="#FFFFFF" stroke-width="9" stroke-miterlimit="10" x1="85.886" y1="77.952" x2="170.839" y2="145.394"/>
	</g>
</g>
</svg>
