<?xml version="1.0" encoding="utf-8"?>
<!-- Generator: Adobe Illustrator 16.0.0, SVG Export Plug-In . SVG Version: 6.00 Build 0)  -->
<!DOCTYPE svg PUBLIC "-//W3C//DTD SVG 1.1//EN" "http://www.w3.org/Graphics/SVG/1.1/DTD/svg11.dtd">
<svg version="1.1" id="Layer_1" xmlns="http://www.w3.org/2000/svg" xmlns:xlink="http://www.w3.org/1999/xlink" x="0px" y="0px"
	 width="251.194px" height="384.317px" viewBox="0 0 251.194 384.317" enable-background="new 0 0 251.194 384.317"
	 xml:space="preserve">
<g>
	<g>
		<path stroke="#000000" stroke-miterlimit="10" d="M68.823,242.718L0.796,383.771h27.838l8.43-18.496h63.332l9.156,18.498h27.65
			L68.823,242.718z M49.185,341.177l19.617-41.125l19.686,41.125H49.185z"/>
		<polygon stroke="#000000" stroke-miterlimit="10" points="146.962,383.817 177.272,383.817 177.272,323.427 231.921,323.427 
			231.921,297.599 177.288,297.599 177.288,268.733 250.694,268.733 250.694,241.784 146.917,241.784 		"/>
	</g>
	<g>
		<g>
			<path fill-rule="evenodd" clip-rule="evenodd" stroke="#000000" stroke-width="6" stroke-miterlimit="10" d="M96.6,17.157
				c9.941-4.149,19.862-8.354,29.833-12.429c7.311-2.986,14.201-2.128,20.475,2.78c16.664,13.041,33.335,26.072,49.955,39.169
				c5.632,4.439,8.062,10.399,7.178,17.492c-2.099,16.86-4.341,33.7-6.528,50.551c-0.495,3.816-1.041,7.624-1.498,11.441
				c-1.035,8.723-5.707,14.561-13.774,17.916c-15.692,6.531-31.337,13.179-47.021,19.729c-3.9,1.631-7.855,3.142-11.837,4.57
				c-6.271,2.246-12.091,0.89-17.289-2.896c-8.241-5.999-16.326-12.212-24.458-18.359c-8.028-6.07-16.04-12.171-24.047-18.269
				c-4.174-3.174-8.243-6.502-9.493-11.926c-0.554-2.401-1.004-4.973-0.747-7.387c1.527-14.342,3.271-28.663,4.953-42.988
				c0.779-6.625,1.646-13.236,2.361-19.867c0.883-8.235,4.865-14.193,12.578-17.449c8.922-3.764,17.875-7.459,26.813-11.187
				c0.827-0.346,1.657-0.691,2.486-1.039C96.558,17.058,96.579,17.108,96.6,17.157z M98.426,20.399
				c-0.003-0.007-0.003-0.01-0.006-0.013c-9.947,4.152-19.9,8.287-29.841,12.457c-5.577,2.34-8.731,6.573-9.452,12.555
				c-2.561,21.262-5.105,42.532-7.608,63.804c-0.694,5.88,1.313,10.747,6.04,14.352c16.732,12.745,33.521,25.422,50.242,38.188
				c5.248,4.008,10.704,4.659,16.78,2.077c18.96-8.049,37.948-16.026,56.962-23.943c6.1-2.54,9.41-6.95,10.25-13.466
				c2.664-20.675,5.416-41.334,8.131-62.001c0.806-6.175-1.197-11.221-6.119-15.079c-16.556-12.979-33.116-25.949-49.651-38.95
				c-5.137-4.04-10.616-4.681-16.604-2.15C117.859,12.329,108.136,16.344,98.426,20.399z"/>
		</g>
		
			<line fill-rule="evenodd" clip-rule="evenodd" stroke="#000000" stroke-width="9" stroke-miterlimit="10" x1="153.698" y1="18.167" x2="140.809" y2="122.695"/>
		
			<line fill-rule="evenodd" clip-rule="evenodd" stroke="#000000" stroke-width="9" stroke-miterlimit="10" x1="54.215" y1="89.346" x2="147.814" y2="51.513"/>
		
			<line fill-rule="evenodd" clip-rule="evenodd" stroke="#000000" stroke-width="9" stroke-miterlimit="10" x1="86.682" y1="77.952" x2="171.635" y2="145.394"/>
	</g>
</g>
</svg>
