<?xml version="1.0" encoding="utf-8"?>
<!-- Generator: Adobe Illustrator 16.0.0, SVG Export Plug-In . SVG Version: 6.00 Build 0)  -->
<!DOCTYPE svg PUBLIC "-//W3C//DTD SVG 1.1//EN" "http://www.w3.org/Graphics/SVG/1.1/DTD/svg11.dtd">
<svg version="1.1" id="Layer_1" xmlns="http://www.w3.org/2000/svg" xmlns:xlink="http://www.w3.org/1999/xlink" x="0px" y="0px"
	 width="868.636px" height="230.5px" viewBox="0 0 868.636 230.5" enable-background="new 0 0 868.636 230.5" xml:space="preserve">
<g>
	<g>
		<path fill="#FFFFFF" d="M81.147,114.024c-0.453-0.357-0.797-0.387-1.326-0.172c-6.953,2.832-13.916,5.643-20.887,8.432
			c-0.498,0.199-0.688,0.461-0.746,0.969c-0.43,3.777-0.889,7.551-1.33,11.328c-0.156,1.334-0.176,2.666,0.156,3.98
			c0.496,1.969,1.629,3.514,3.197,4.758c0.779,0.621,1.58,1.215,2.373,1.816c13.252,10.063,26.504,20.127,39.764,30.18
			c0.682,0.518,1.408,0.994,2.162,1.396c1.684,0.902,3.48,1.232,5.387,0.932c1.15-0.18,2.238-0.543,3.303-0.992
			c9.963-4.199,19.924-8.398,29.885-12.598c0.205-0.086,0.408-0.178,0.711-0.313c-0.275-0.225-0.465-0.385-0.658-0.539
			C122.472,146.813,101.804,130.427,81.147,114.024z"/>
		<path fill="#FFFFFF" d="M123.394,133.659c0.123,0.098,0.256,0.184,0.387,0.271c0.016,0.01,0.043,0.004,0.064,0
			c0.021-0.002,0.041-0.012,0.088-0.029c1.633-13.229,3.268-26.471,4.904-39.734c-0.787,0.16-36.16,14.477-36.576,14.807
			C102.644,117.206,113.019,125.435,123.394,133.659z"/>
		<path fill="#FFFFFF" d="M116.417,87.364c4.467-1.803,8.932-3.609,13.4-5.408c0.326-0.133,0.582-0.258,0.631-0.686
			c0.309-2.676,0.645-5.348,0.973-8.021c0.34-2.762,0.684-5.523,1.025-8.287c0.248-2.021,0.488-4.043,0.75-6.064
			c0.051-0.379-0.055-0.625-0.361-0.861c-1.508-1.16-2.98-2.363-4.504-3.504c-0.666-0.498-1.389-0.941-2.135-1.311
			c-1.428-0.707-2.951-0.965-4.551-0.785c-1.252,0.139-2.428,0.518-3.58,0.998c-9.291,3.873-18.58,7.748-27.869,11.619
			c-5.408,2.254-10.816,4.504-16.223,6.76c-1.838,0.766-3.686,1.508-5.502,2.32c-2.9,1.299-4.666,3.521-5.148,6.682
			c-0.309,2.035-0.533,4.084-0.779,6.129c-0.432,3.572-0.85,7.146-1.277,10.719c-0.432,3.596-0.871,7.189-1.305,10.785
			c-0.066,0.557-0.117,1.115-0.186,1.77c0.359-0.141,0.629-0.242,0.895-0.35C79.253,102.368,97.835,94.866,116.417,87.364z"/>
		<path fill="#FFFFFF" d="M169.663,86.905c-3.043-2.393-6.094-4.775-9.143-7.162c-5.525-4.328-11.049-8.656-16.574-12.982
			c-0.201-0.156-0.41-0.303-0.695-0.514c-3.125,25.311-6.232,50.482-9.35,75.73c0.191,0.158,0.363,0.303,0.539,0.443
			c4.752,3.77,9.506,7.539,14.26,11.309c2.059,1.633,4.123,3.256,6.168,4.902c0.309,0.248,0.561,0.303,0.916,0.127
			c0.445-0.219,0.918-0.381,1.375-0.576c1.498-0.637,3.021-1.225,4.486-1.93c2.764-1.328,4.529-3.506,5.117-6.533
			c0.34-1.752,0.547-3.531,0.781-5.301c0.527-3.994,1.029-7.99,1.551-11.982c0.52-3.971,1.055-7.939,1.578-11.91
			c0.52-3.949,1.031-7.898,1.549-11.846c0.557-4.24,1.16-8.475,1.664-12.721c0.354-2.979-0.496-5.604-2.68-7.727
			C170.722,87.761,170.196,87.325,169.663,86.905z"/>
		<path fill="#FFFFFF" d="M115.25,0C51.599,0,0,51.599,0,115.25S51.599,230.5,115.25,230.5S230.5,178.901,230.5,115.25
			S178.901,0,115.25,0z M184.55,96.771c-0.061,0.463-0.121,0.928-0.182,1.391c-0.34,2.648-0.68,5.297-1.02,7.945
			c-0.65,5.07-1.295,10.145-1.953,15.215c-0.654,5.025-1.324,10.049-1.984,15.074c-0.598,4.553-1.156,9.113-1.801,13.66
			c-0.529,3.719-1.898,7.113-4.246,10.078c-2.391,3.018-5.449,5.148-8.969,6.629c-10.775,4.535-21.559,9.051-32.34,13.572
			c-5.674,2.377-11.32,4.822-17.133,6.842c-1.172,0.408-2.389,0.686-3.59,0.996c-0.543,0.141-1.102,0.215-1.654,0.318
			c-0.906,0-1.813,0-2.717,0c-0.15-0.043-0.297-0.1-0.449-0.127c-0.668-0.123-1.342-0.213-2.004-0.357
			c-2.943-0.646-5.57-1.977-7.971-3.771c-5.891-4.402-11.787-8.797-17.654-13.229c-7.891-5.961-15.76-11.949-23.633-17.932
			c-1.588-1.207-3.102-2.498-4.443-3.98c-1.805-1.994-3.172-4.244-3.832-6.865c-0.332-1.311-0.516-2.66-0.773-3.99
			c-0.064-0.33-0.168-0.65-0.252-0.977c0-0.859,0-1.721,0-2.582c0.08-0.279,0.205-0.555,0.236-0.84
			c0.287-2.52,0.555-5.039,0.836-7.559c0.375-3.35,0.75-6.701,1.141-10.051c0.424-3.641,0.869-7.279,1.301-10.918
			c0.473-3.979,0.938-7.955,1.41-11.934c0.482-4.066,0.963-8.133,1.455-12.199c0.322-2.65,1.031-5.189,2.246-7.574
			c2.238-4.387,5.762-7.371,10.234-9.303c1.078-0.465,2.166-0.914,3.252-1.365c4.236-1.768,8.463-3.563,12.715-5.289
			c4.246-1.725,8.459-3.523,12.725-5.207c6.961-2.748,13.836-5.713,20.746-8.59c1.846-0.768,3.744-1.346,5.727-1.625
			c0.465-0.066,0.928-0.145,1.391-0.219c0.951,0,1.902,0,2.854,0c0.174,0.041,0.344,0.09,0.518,0.119
			c0.758,0.123,1.527,0.201,2.275,0.367c3.174,0.711,5.953,2.223,8.498,4.217c8.018,6.281,16.049,12.549,24.068,18.828
			c5.881,4.605,11.762,9.211,17.623,13.842c3.758,2.969,6.252,6.746,7.129,11.51c0.086,0.463,0.148,0.93,0.221,1.395
			C184.55,93.78,184.55,95.274,184.55,96.771z"/>
	</g>
	<g>
		<path fill="#FFFFFF" d="M292.02,181.927c-1.294-0.528-2.651-0.793-4.071-0.793c-3.046,0-5.65,1.132-7.812,3.396
			c-2.163,2.264-3.243,4.99-3.243,8.179c0,3.205,1.08,5.939,3.243,8.203c2.161,2.264,4.766,3.396,7.812,3.396
			c1.42,0,2.777-0.272,4.071-0.818c1.326-0.545,2.494-1.313,3.504-2.305l4.663,5.229c-1.673,1.652-3.551,2.908-5.634,3.767
			c-2.115,0.876-4.316,1.313-6.604,1.313c-4.939,0-9.161-1.834-12.665-5.502c-3.503-3.668-5.255-8.096-5.255-13.283
			c0-5.172,1.752-9.592,5.255-13.26c3.504-3.668,7.726-5.502,12.665-5.502c2.288,0,4.489,0.438,6.604,1.313
			c2.083,0.859,3.961,2.115,5.634,3.768l-4.663,5.229C294.514,183.265,293.346,182.488,292.02,181.927z"/>
		<path fill="#FFFFFF" d="M306.354,210.676v-35.911h13.043v-0.025c3.282,0,6.076,0.735,8.38,2.206
			c2.1,1.338,3.653,3.164,4.664,5.478c0.772,1.751,1.144,3.618,1.112,5.601c-0.016,1.95-0.41,3.809-1.184,5.576
			c-1.437,3.321-3.985,5.7-7.646,7.138c0.82,0.413,1.634,1.091,2.438,2.032l6.604,7.906h-9.113l-7.291-8.724h-4.144v8.724H306.354z
			 M313.218,181.902v12.912h6.179c3.299,0,5.548-1.388,6.747-4.164c0.379-0.892,0.576-1.792,0.592-2.701
			c0-0.908-0.166-1.751-0.497-2.528c-1.026-2.329-3.307-3.494-6.842-3.494v-0.024H313.218z"/>
		<path fill="#FFFFFF" d="M361.663,181.927h-15.506v6.32h14.062v7.187h-14.062v8.08h15.506v7.162h-22.37v-35.937h22.37V181.927z"/>
		<path fill="#FFFFFF" d="M365.676,210.676l17.021-37.473l17.021,37.473h-7.505l-2.675-5.898h-13.683l-2.675,5.898H365.676z
			 M387.052,199.3l-2.107-4.634c-0.473-1.041-1.223-2.867-2.248-5.478c-0.253,0.562-0.616,1.454-1.089,2.677
			c-0.474,1.206-0.845,2.115-1.113,2.726l-2.154,4.709H387.052z"/>
		<path fill="#FFFFFF" d="M414.381,181.927v28.749h-6.865v-28.749h-9.303v-7.188h25.472v7.188H414.381z"/>
		<path fill="#FFFFFF" d="M436.242,174.739v35.937h-6.865v-35.937H436.242z"/>
		<path fill="#FFFFFF" d="M448.847,174.739l9.635,20.818l9.658-20.818h7.623l-17.281,37.226l-17.257-37.226H448.847z"/>
		<path fill="#FFFFFF" d="M487.61,174.739v35.937h-6.865v-35.937H487.61z"/>
		<path fill="#FFFFFF" d="M509.471,181.927v28.749h-6.865v-28.749h-9.303v-7.188h25.472v7.188H509.471z"/>
		<path fill="#FFFFFF" d="M529.746,174.739l9.138,16.854l9.161-16.854h7.859l-13.588,25.031v10.905h-6.865v-10.905l-13.588-25.031
			H529.746z"/>
		<path fill="#FFFFFF" d="M580.783,174.739v35.937h-6.865v-35.937H580.783z"/>
		<path fill="#FFFFFF" d="M594.997,200.465c0,1.603,1.065,2.743,3.196,3.42c0.947,0.281,1.925,0.422,2.936,0.422
			c1.057,0,2.035-0.141,2.936-0.422c2.13-0.677,3.195-1.817,3.195-3.42c0-1.106-0.718-2.016-2.154-2.727
			c-0.868-0.429-2.462-0.941-4.781-1.536c-4.057-1.041-6.85-2.098-8.381-3.172c-2.541-1.769-3.811-4.462-3.811-8.08
			c0-2.594,0.781-4.808,2.344-6.642c1.42-1.652,3.345-2.858,5.775-3.618c1.531-0.496,3.156-0.744,4.877-0.744
			c1.704,0,3.338,0.248,4.9,0.744c2.414,0.76,4.332,1.966,5.752,3.618c1.563,1.834,2.344,4.048,2.344,6.642h-6.865
			c0-1.586-1.065-2.718-3.195-3.396c-0.9-0.28-1.879-0.421-2.936-0.421v-0.024c-1.011,0-1.988,0.148-2.936,0.445
			c-2.131,0.678-3.196,1.81-3.196,3.396c0,1.124,0.727,2.041,2.179,2.751c0.867,0.43,2.453,0.942,4.758,1.537
			c4.071,1.041,6.865,2.09,8.38,3.147c2.541,1.784,3.812,4.478,3.812,8.079c0,2.594-0.781,4.809-2.344,6.643
			c-1.42,1.669-3.338,2.883-5.752,3.643c-1.563,0.496-3.196,0.743-4.9,0.743v-0.024c-1.721,0-3.346-0.239-4.877-0.719
			c-2.431-0.76-4.355-1.974-5.775-3.643c-1.563-1.834-2.344-4.049-2.344-6.643H594.997z"/>
		<path fill="#FFFFFF" d="M631.902,210.676l17.021-37.473l17.021,37.473h-7.505l-2.675-5.898h-13.683l-2.675,5.898H631.902z
			 M653.278,199.3l-2.107-4.634c-0.473-1.041-1.223-2.867-2.248-5.478c-0.253,0.562-0.616,1.454-1.089,2.677
			c-0.474,1.206-0.845,2.115-1.113,2.726l-2.154,4.709H653.278z"/>
		<path fill="#FFFFFF" d="M705.238,181.927c-1.294-0.528-2.651-0.793-4.071-0.793c-3.046,0-5.65,1.132-7.812,3.396
			c-2.163,2.264-3.243,4.99-3.243,8.179c0,3.205,1.08,5.939,3.243,8.203c2.161,2.264,4.766,3.396,7.812,3.396
			c1.42,0,2.777-0.272,4.071-0.818c1.326-0.545,2.494-1.313,3.504-2.305l4.663,5.229c-1.673,1.652-3.551,2.908-5.634,3.767
			c-2.115,0.876-4.316,1.313-6.604,1.313c-4.939,0-9.161-1.834-12.665-5.502c-3.503-3.668-5.255-8.096-5.255-13.283
			c0-5.172,1.752-9.592,5.255-13.26c3.504-3.668,7.726-5.502,12.665-5.502c2.288,0,4.489,0.438,6.604,1.313
			c2.083,0.859,3.961,2.115,5.634,3.768l-4.663,5.229C707.732,183.265,706.564,182.488,705.238,181.927z"/>
		<path fill="#FFFFFF" d="M726.437,174.739v13.384h14.867v-13.384h6.864v35.937h-6.864V195.31h-14.867v15.366h-6.864v-35.937
			H726.437z"/>
		<path fill="#FFFFFF" d="M782.528,177.193c2.651,1.966,4.616,4.626,5.895,7.98c0.915,2.396,1.372,4.907,1.372,7.534
			s-0.457,5.146-1.372,7.559c-1.278,3.354-3.243,6.015-5.895,7.98c-2.92,2.165-6.408,3.246-10.464,3.246
			c-4.04,0-7.527-1.081-10.463-3.246c-2.651-1.966-4.616-4.626-5.895-7.98c-0.915-2.412-1.373-4.932-1.373-7.559
			s0.458-5.139,1.373-7.534c1.278-3.354,3.243-6.015,5.895-7.98c2.936-2.165,6.423-3.247,10.463-3.247
			C776.12,173.946,779.608,175.028,782.528,177.193z M778.504,183.066c-1.8-1.288-3.946-1.933-6.439-1.933s-4.632,0.645-6.415,1.933
			c-1.626,1.174-2.817,2.768-3.574,4.783c-0.584,1.504-0.876,3.123-0.876,4.858c0,1.734,0.292,3.362,0.876,4.882
			c0.757,2,1.948,3.586,3.574,4.759c1.783,1.306,3.922,1.958,6.415,1.958s4.64-0.652,6.439-1.958
			c1.609-1.173,2.801-2.759,3.574-4.759c0.568-1.52,0.853-3.147,0.853-4.882c0-1.735-0.284-3.354-0.853-4.858
			C781.305,185.834,780.113,184.24,778.504,183.066z"/>
		<path fill="#FFFFFF" d="M803.063,174.739v35.937h-6.865v-35.937H803.063z"/>
		<path fill="#FFFFFF" d="M831.932,181.927c-1.294-0.528-2.651-0.793-4.071-0.793c-3.046,0-5.65,1.132-7.812,3.396
			c-2.163,2.264-3.243,4.99-3.243,8.179c0,3.205,1.08,5.939,3.243,8.203c2.161,2.264,4.766,3.396,7.812,3.396
			c1.42,0,2.777-0.272,4.071-0.818c1.326-0.545,2.494-1.313,3.504-2.305l4.663,5.229c-1.673,1.652-3.551,2.908-5.634,3.767
			c-2.115,0.876-4.316,1.313-6.604,1.313c-4.939,0-9.161-1.834-12.665-5.502c-3.503-3.668-5.255-8.096-5.255-13.283
			c0-5.172,1.752-9.592,5.255-13.26c3.504-3.668,7.726-5.502,12.665-5.502c2.288,0,4.489,0.438,6.604,1.313
			c2.083,0.859,3.961,2.115,5.634,3.768l-4.663,5.229C834.426,183.265,833.258,182.488,831.932,181.927z"/>
		<path fill="#FFFFFF" d="M868.636,181.927H853.13v6.32h14.062v7.187H853.13v8.08h15.506v7.162h-22.37v-35.937h22.37V181.927z"/>
	</g>
	<g>
		<path fill="#FFFFFF" d="M325.886,28.619l-55.857,115.819h22.857l6.922-15.188h52.004l7.518,15.188h22.703L325.886,28.619z
			 M309.761,109.464l16.107-33.769l16.164,33.769H309.761z"/>
		<polygon fill="#FFFFFF" points="390.047,144.477 414.936,144.477 414.936,94.889 459.808,94.889 459.808,73.683 414.947,73.683 
			414.947,49.98 475.224,49.98 475.224,27.853 390.01,27.853 		"/>
	</g>
</g>
</svg>
