<svg height="512pt" viewBox="0 -141 512 511" width="512pt" xmlns="http://www.w3.org/2000/svg"><g fill-rule="evenodd"><path d="m151.078125 10.5h209.84375v209.839844h-209.84375zm0 0" fill="#fed049"/><path d="m10 45.519531h141.078125v139.800781h-141.078125zm0 0" fill="#88c9f7"/><path d="m360.921875 45.519531h141.078125v139.800781h-141.078125zm0 0" fill="#88c9f7"/><path d="m302.382812 115.417969-46.382812-26.777344-46.378906-26.777344v107.113281l46.378906-26.777343zm0 0" fill="#fa5c66"/><path d="m502 35.519531h-131.078125v-25.019531c0-5.523438-4.480469-10-10-10h-209.84375c-5.523437 0-10 4.476562-10 10v25.019531h-131.078125c-5.523438 0-10 4.476563-10 10v139.800781c0 5.523438 4.476562 10 10 10h131.078125v25.019532c0 5.523437 4.476563 10 10 10h64.921875c5.523438 0 10-4.476563 10-10 0-5.519532-4.476562-10-10-10h-54.921875v-189.839844h189.84375v189.839844h-54.921875c-5.523438 0-10 4.480468-10 10 0 5.523437 4.476562 10 10 10h64.921875c5.519531 0 10-4.476563 10-10v-25.019532h131.078125c5.523438 0 10-4.480468 10-10v-139.800781c0-5.523437-4.476562-10-10-10zm-482 139.800781v-119.800781h121.078125v119.800781zm472 0h-121.078125v-119.800781h121.078125zm0 0"/><path d="m56.527344 115.417969 22.363281-22.359375c3.902344-3.90625 3.902344-10.238282 0-14.144532-3.90625-3.902343-10.238281-3.902343-14.144531 0l-29.433594 29.433594c-3.90625 3.90625-3.90625 10.238282 0 14.144532l29.433594 29.433593c1.953125 1.953125 4.511718 2.929688 7.070312 2.929688s5.121094-.976563 7.074219-2.929688c3.902344-3.902343 3.902344-10.234375 0-14.140625zm0 0"/><path d="m122.746094 78.914062c-3.902344-3.902343-10.234375-3.902343-14.140625 0l-29.433594 29.4375c-3.90625 3.902344-3.90625 10.234376 0 14.140626l29.433594 29.433593c1.953125 1.953125 4.511719 2.929688 7.070312 2.929688 2.558594 0 5.117188-.976563 7.070313-2.929688 3.90625-3.902343 3.90625-10.234375 0-14.140625l-22.363282-22.367187 22.363282-22.359375c3.90625-3.90625 3.90625-10.238282 0-14.144532zm0 0"/><path d="m389.253906 151.925781c1.953125 1.949219 4.511719 2.929688 7.070313 2.929688 2.558593 0 5.117187-.980469 7.070312-2.929688l29.433594-29.433593c3.90625-3.90625 3.90625-10.238282 0-14.144532l-29.433594-29.433594c-3.90625-3.902343-10.234375-3.90625-14.140625 0-3.90625 3.902344-3.90625 10.234376 0 14.140626l22.363282 22.363281-22.363282 22.363281c-3.90625 3.90625-3.90625 10.238281 0 14.144531zm0 0"/><path d="m455.472656 115.417969-22.363281 22.363281c-3.902344 3.90625-3.902344 10.238281 0 14.144531 1.953125 1.949219 4.515625 2.929688 7.074219 2.929688s5.117187-.980469 7.070312-2.929688l29.433594-29.433593c3.90625-3.90625 3.90625-10.238282 0-14.144532l-29.433594-29.433594c-3.90625-3.902343-10.234375-3.90625-14.144531 0-3.902344 3.902344-3.902344 10.234376 0 14.140626zm0 0"/><path d="m312.382812 115.417969c0-3.570313-1.90625-6.871094-5-8.65625l-92.761718-53.558594c-3.097656-1.785156-6.90625-1.785156-10 0s-5 5.089844-5 8.660156v107.113281c0 3.570313 1.90625 6.871094 5 8.65625 1.546875.894532 3.273437 1.34375 5 1.34375 1.726562 0 3.453125-.449218 5-1.34375l92.761718-53.554687c3.09375-1.785156 5-5.085937 5-8.660156zm-92.761718 36.238281v-72.472656l62.761718 36.234375zm0 0"/><path d="m256 210.339844c-5.507812 0-10 4.492187-10 10 0 5.507812 4.492188 10 10 10s10-4.492188 10-10c0-5.507813-4.492188-10-10-10zm0 0"/></g></svg>